<svg viewBox="0 0 24 24" fill="#666" xmlns="http://www.w3.org/2000/svg" preserveAspectRatio="none"><path d="M13.406 0a4.224 4.224 0 014.219 4.219v14.156A5.631 5.631 0 0112 24a5.631 5.631 0 01-5.625-5.625V4.219h1.406v14.156A4.224 4.224 0 0012 22.594a4.223 4.223 0 004.219-4.219V4.219a2.816 2.816 0 00-2.813-2.813 2.816 2.816 0 00-2.812 2.813v11.343c0 .776.63 1.407 1.406 1.407.775 0 1.406-.631 1.406-1.407V4.22h1.406v11.343A2.816 2.816 0 0112 18.375a2.816 2.816 0 01-2.813-2.813V4.22A4.224 4.224 0 0113.407 0z"/></svg>