<svg viewBox="0 0 24 24" fill="#666666" xmlns="http://www.w3.org/2000/svg">
<path d="M13.4063 5.35323e-06C15.7325 5.5566e-06 17.625 1.89254 17.625 4.21875L17.625 18.375C17.625 21.4766 15.1016 24 12 24C8.89837 24 6.375 21.4766 6.375 18.375L6.375 4.21875L7.78125 4.21875L7.78125 18.375C7.78125 20.7012 9.67378 22.5937 12 22.5937C14.3262 22.5938 16.2188 20.7012 16.2188 18.375L16.2188 4.21875C16.2188 2.66794 14.9571 1.40626 13.4063 1.40626C11.8554 1.40626 10.5938 2.66794 10.5938 4.21875L10.5938 15.5625C10.5938 16.3379 11.2246 16.9688 12 16.9688C12.7754 16.9688 13.4063 16.3379 13.4063 15.5625L13.4063 4.21875L14.8125 4.21875L14.8125 15.5625C14.8125 17.1133 13.5508 18.375 12 18.375C10.4492 18.375 9.1875 17.1133 9.1875 15.5625L9.1875 4.21875C9.1875 1.89254 11.08 5.14987e-06 13.4063 5.35323e-06Z"/>
<defs>
<rect x="24" y="24" fill="white"/>
</defs>
</svg>
