<svg width="1920" height="1710" viewBox="0 0 1920 1710" fill="none" xmlns="http://www.w3.org/2000/svg">
<path d="M61.3421 299.877C235.58 346.564 396.803 274.038 438.257 119.329C475.824 -20.8754 404.479 -115.992 271.258 -193.142L201.477 -236.021C136.855 -272.337 134.516 -302.326 140.993 -326.5C150.925 -363.565 197.621 -370.053 236.34 -359.678C289.58 -345.413 329.888 -308.703 354.472 -252.026L531.192 -330.763C492.455 -437.869 412.587 -507.633 288.362 -540.919C115.738 -587.173 -35.5776 -525.81 -80.1444 -378.844C-118.234 -256.052 -64.6587 -139.789 73.4024 -61.3413L129.209 -30.8427C211.463 17.1062 225.641 41.6322 216.573 75.4746C205.778 115.763 157.469 121.819 112.296 109.715C34.8571 88.965 -22.2206 37.3988 -43.3496 -32.171L-229.546 56.1181C-188.241 179.457 -80.6293 261.836 61.3421 299.877Z" fill="#FFD6CE"/>
<path d="M1020.59 548.27C1102.86 570.316 1196.89 567.875 1241.22 557.3L1223.44 359.082C1195.79 365.49 1148.34 368.323 1104.78 356.651C1022.5 334.604 992.103 286.732 1018.44 188.427L1095.31 -98.4284L1338.92 -33.1533L1390.73 -226.539L1147.12 -291.814L1211.9 -533.546L990.872 -592.77L926.1 -351.037L730.89 -403.344L679.072 -209.958L874.283 -157.651L785.761 172.716C732.648 370.936 839.894 499.854 1020.59 548.27Z" fill="#FFD6CE"/>
<path d="M1778.46 759.978C2012.39 822.659 2251.99 689.952 2315.46 453.055C2378.51 217.768 2237.8 -18.5693 2003.87 -81.2507C1769.94 -143.932 1529.91 -9.6136 1466.86 225.672C1403.39 462.57 1544.53 697.296 1778.46 759.978ZM1833.73 553.699C1717.57 522.575 1656.25 409.417 1689.5 285.328C1722.75 161.239 1832.44 93.903 1948.59 125.028C2063.14 155.72 2124.46 268.878 2091.21 392.967C2057.96 517.056 1948.28 584.392 1833.73 553.699Z" fill="#FFD6CE"/>
<path d="M2447.57 920.264L2668.59 979.487L2805.91 467.015C2861.9 412.928 2946.25 407.893 3009.16 424.752C3041.43 433.398 3064.34 444.717 3074.33 452.577L3163.92 253.765C3147.9 242.564 3114.56 224.996 3074.23 214.189C2990.34 191.71 2901.56 219.739 2858.59 270.406L2884.5 173.713L2663.47 114.49L2447.57 920.264Z" fill="#FFD6CE"/>
<path d="M3504.51 232.757C3583.56 253.939 3663.32 207.947 3684.05 130.593C3704.78 53.2387 3658.7 -26.4709 3579.65 -47.6529C3503.82 -67.9703 3422.45 -22.4112 3401.72 54.943C3381 132.297 3428.69 212.439 3504.51 232.757ZM3152.13 1109.05L3373.15 1168.27L3589.06 362.5L3368.03 303.277L3152.13 1109.05Z" fill="#FFD6CE"/>
<path d="M4037.21 1365.21C4206.6 1410.6 4354.67 1374.27 4459.86 1285L4328.12 1118.43C4275.9 1164.89 4194.44 1191.43 4092.8 1164.2C3986.32 1135.67 3907.11 1050.53 3923.14 939.101L4526.51 1100.78C4540.42 1068.23 4544.85 1045.24 4550.04 1025.9C4620.42 763.215 4470.73 579.744 4259.39 523.115C4014.16 457.407 3786.29 591.528 3722.38 830.038C3654.16 1084.66 3796.82 1300.8 4037.21 1365.21ZM3971.36 791.389C4018.67 698.704 4121.86 681.444 4204.14 703.49C4286.42 725.537 4355.42 790.663 4348.88 892.543L3971.36 791.389Z" fill="#FFD6CE"/>
<path d="M4945.7 1608.64C5119.94 1655.32 5281.16 1582.8 5322.62 1428.09C5360.19 1287.89 5288.84 1192.77 5155.62 1115.62L5085.84 1072.74C5021.22 1036.42 5018.88 1006.43 5025.35 982.261C5035.29 945.195 5081.98 938.708 5120.7 949.083C5173.94 963.348 5214.25 1000.06 5238.83 1056.73L5415.55 977.998C5376.82 870.892 5296.95 801.128 5172.72 767.842C5000.1 721.588 4848.78 782.951 4804.22 929.916C4766.13 1052.71 4819.7 1168.97 4957.76 1247.42L5013.57 1277.92C5095.82 1325.87 5110 1350.39 5100.93 1384.24C5090.14 1424.52 5041.83 1430.58 4996.66 1418.48C4919.22 1397.73 4862.14 1346.16 4841.01 1276.59L4654.82 1364.88C4696.12 1488.22 4803.73 1570.6 4945.7 1608.64Z" fill="#FFD6CE"/>
<path d="M-2997.96 604.106C-2823.72 650.793 -2662.5 578.266 -2621.04 423.558C-2583.48 283.353 -2654.82 188.237 -2788.04 111.086L-2857.82 68.2073C-2922.44 31.892 -2924.78 1.90204 -2918.31 -22.2712C-2908.37 -59.3369 -2861.68 -65.8245 -2822.96 -55.4497C-2769.72 -41.1842 -2729.41 -4.47471 -2704.83 52.2028L-2528.11 -26.5346C-2566.85 -133.64 -2646.71 -203.404 -2770.94 -236.69C-2943.56 -282.945 -3094.88 -221.581 -3139.44 -74.6158C-3177.53 48.1765 -3123.96 164.44 -2985.9 242.887L-2930.09 273.386C-2847.84 321.335 -2833.66 345.861 -2842.73 379.703C-2853.52 419.992 -2901.83 426.047 -2947 413.943C-3024.44 393.194 -3081.52 341.627 -3102.65 272.057L-3288.85 360.347C-3247.54 483.685 -3139.93 566.065 -2997.96 604.106Z" fill="#FFD6CE"/>
<path d="M-2038.71 852.498C-1956.44 874.545 -1862.41 872.103 -1818.08 861.528L-1835.86 663.311C-1863.51 669.719 -1910.96 672.551 -1954.52 660.879C-2036.8 638.833 -2067.2 590.96 -2040.86 492.656L-1963.99 205.8L-1720.38 271.075L-1668.57 77.6895L-1912.18 12.4144L-1847.4 -229.318L-2068.43 -288.541L-2133.2 -46.8087L-2328.41 -99.1152L-2380.23 94.2705L-2185.02 146.577L-2273.54 476.944C-2326.65 675.165 -2219.41 804.082 -2038.71 852.498Z" fill="#FFD6CE"/>
<path d="M-1280.84 1064.21C-1046.91 1126.89 -807.313 994.181 -743.837 757.283C-680.792 521.997 -821.504 285.659 -1055.43 222.978C-1289.36 160.296 -1529.39 294.615 -1592.44 529.901C-1655.91 766.799 -1514.77 1001.52 -1280.84 1064.21ZM-1225.57 857.928C-1341.73 826.803 -1403.05 713.646 -1369.8 589.556C-1336.55 465.467 -1226.86 398.131 -1110.71 429.256C-996.161 459.948 -934.837 573.106 -968.087 697.195C-1001.34 821.285 -1111.02 888.62 -1225.57 857.928Z" fill="#FFD6CE"/>
<path d="M-611.734 1224.49L-390.711 1283.72L-253.394 771.244C-197.402 717.156 -113.054 712.121 -50.1352 728.981C-17.8689 737.626 5.03528 748.945 15.0331 756.806L104.616 557.994C88.5973 546.793 55.2635 529.225 14.9307 518.417C-68.9615 495.939 -157.742 523.968 -200.713 574.635L-174.804 477.942L-395.828 418.719L-611.734 1224.49Z" fill="#FFD6CE"/>
<path d="M445.213 536.985C524.265 558.167 604.025 512.176 624.752 434.821C645.479 357.467 599.4 277.758 520.348 256.576C444.522 236.258 363.149 281.817 342.422 359.172C321.695 436.526 369.387 516.668 445.213 536.985ZM92.8287 1413.28L313.852 1472.5L529.759 666.729L308.735 607.506L92.8287 1413.28Z" fill="#FFD6CE"/>
<path d="M977.908 1669.44C1147.31 1714.83 1295.37 1678.5 1400.56 1589.23L1268.82 1422.66C1216.6 1469.12 1135.14 1495.66 1033.5 1468.42C927.019 1439.89 847.811 1354.76 863.836 1243.33L1467.21 1405C1481.12 1372.46 1485.55 1349.46 1490.74 1330.13C1561.12 1067.44 1411.43 883.972 1200.09 827.343C954.864 761.636 726.992 895.757 663.084 1134.27C594.857 1388.89 737.524 1605.03 977.908 1669.44ZM912.061 1095.62C959.375 1002.93 1062.56 985.672 1144.84 1007.72C1227.12 1029.77 1296.12 1094.89 1289.58 1196.77L912.061 1095.62Z" fill="#FFD6CE"/>
<path d="M1886.4 1912.87C2060.64 1959.55 2221.86 1887.03 2263.32 1732.32C2300.89 1592.11 2229.54 1497 2096.32 1419.85L2026.54 1376.97C1961.92 1340.65 1959.58 1310.66 1966.05 1286.49C1975.99 1249.42 2022.68 1242.94 2061.4 1253.31C2114.64 1267.58 2154.95 1304.29 2179.53 1360.96L2356.25 1282.23C2317.52 1175.12 2237.65 1105.36 2113.42 1072.07C1940.8 1025.82 1789.48 1087.18 1744.92 1234.14C1706.83 1356.94 1760.4 1473.2 1898.46 1551.65L1954.27 1582.15C2036.52 1630.1 2050.7 1654.62 2041.63 1688.46C2030.84 1728.75 1982.53 1734.81 1937.36 1722.7C1859.92 1701.95 1802.84 1650.39 1781.71 1580.82L1595.52 1669.11C1636.82 1792.45 1744.43 1874.83 1886.4 1912.87Z" fill="#FFD6CE"/>
</svg>
