<svg width="115" height="24" viewBox="0 0 115 24" fill="none" xmlns="http://www.w3.org/2000/svg">
<path d="M26.585 14.6666C27.3315 15.1224 28.8842 15.6192 30.0813 15.6192C31.3075 15.6192 31.8148 15.2227 31.8148 14.5557C31.8148 13.8675 31.4163 13.55 29.9203 13.0471C27.1981 12.1553 26.1589 10.6999 26.185 9.16547C26.185 6.7347 28.2665 4.91162 31.4945 4.91162C33.015 4.91162 34.35 5.28231 35.1501 5.67124L34.4573 8.4484C33.5831 7.99165 32.6155 7.73812 31.6278 7.70701C30.6407 7.70701 30.0813 8.10353 30.0813 8.73857C30.0813 9.37361 30.5871 9.69113 32.1873 10.2457C34.6688 11.0919 35.6835 12.3619 35.7126 14.2397C35.7126 16.6705 33.8181 18.4434 30.0828 18.4434C28.3753 18.4434 26.8532 18.0484 25.8677 17.5182L26.585 14.6666Z" fill="#48001E"/>
<path d="M42.1136 1.73584V5.23008H45.0259V8.19258H42.1136V12.8718C42.1136 14.4321 42.5121 15.1507 43.7123 15.1507C44.1157 15.1641 44.5193 15.1284 44.914 15.0443L44.94 18.0828C44.4342 18.2681 43.4456 18.4261 42.3251 18.4261C41.0177 18.4261 39.9233 17.9704 39.2596 17.3156C38.5009 16.5438 38.1284 15.3011 38.1284 13.475V2.81905L42.1136 1.73584Z" fill="#48001E"/>
<path d="M60.1142 11.5457C60.1142 16.2797 56.7252 18.4476 53.2305 18.4476C49.4155 18.4476 46.4863 15.9622 46.4863 11.7843C46.4863 7.57902 49.2606 4.9082 53.4773 4.9082C57.441 4.9082 60.1142 7.62915 60.1142 11.5457ZM50.6693 11.6779C50.6693 13.899 51.6042 15.5656 53.3378 15.5656C54.938 15.5656 55.9267 14.0054 55.9267 11.6506C55.9267 9.74848 55.1787 7.79019 53.3378 7.79019C51.4172 7.79019 50.6693 9.77431 50.6693 11.6779Z" fill="#48001E"/>
<path d="M62.6219 9.4829C62.6219 7.5793 62.5959 6.33656 62.5146 5.22904H65.9848L66.1381 7.60968H66.2439C66.9122 5.70456 68.4878 4.91152 69.7692 4.91152C70.0553 4.90756 70.3411 4.93404 70.6215 4.99052V8.77341C70.2612 8.70503 69.8954 8.66944 69.5286 8.66707C68.0341 8.66707 67.021 9.46011 66.7543 10.7028C66.6988 10.9994 66.6721 11.3006 66.6746 11.6022V18.1577H62.6219V9.4829Z" fill="#48001E"/>
<path d="M76.2838 5.22534L78.232 11.5985C78.445 12.3384 78.7102 13.3168 78.8711 14.005H78.9784C79.1394 13.291 79.3509 12.3338 79.5394 11.5742L81.1657 5.22686H85.4912L82.4486 13.7422C80.5863 18.8969 79.3249 20.9327 77.858 22.2286C76.7741 23.2016 75.4142 23.8201 73.9632 24L73.0757 20.6152C73.6956 20.4762 74.2911 20.2468 74.843 19.9346C75.5344 19.5477 76.1147 18.9924 76.5291 18.3211C76.6498 18.1494 76.7233 17.9493 76.7421 17.7408C76.7377 17.5119 76.6856 17.2863 76.5889 17.0784L71.7852 5.22838L76.2838 5.22534Z" fill="#48001E"/>
<path d="M91.7338 1.73584V5.23008H94.646V8.19258H91.7338V12.8718C91.7338 14.4321 92.1323 15.1507 93.3324 15.1507C93.7354 15.1643 94.1385 15.1285 94.5326 15.0443L94.5602 18.0828C94.0528 18.2681 93.0657 18.4261 91.9453 18.4261C90.6378 18.4261 89.5434 17.9704 88.8797 17.3156C88.1333 16.5484 87.7593 15.3056 87.7593 13.4795V2.81905L91.7338 1.73584Z" fill="#48001E"/>
<path d="M99.9788 12.9741C100.083 14.6453 101.766 15.4338 103.657 15.4338C104.88 15.4531 106.098 15.265 107.256 14.8777L107.79 17.6017C106.456 18.1577 104.829 18.4221 103.069 18.4221C98.6392 18.4221 96.104 15.8834 96.104 11.8377C96.104 8.5577 98.1579 4.93433 102.695 4.93433C106.91 4.93433 108.519 8.18853 108.519 11.3865C108.52 11.9185 108.475 12.4495 108.386 12.9741H99.9788ZM104.753 10.2243C104.753 9.24591 104.327 7.60666 102.454 7.60666C100.745 7.60666 100.052 9.16539 99.9467 10.2243H104.753Z" fill="#48001E"/>
<path d="M110.944 18.1579H115V0L110.944 1.106V18.1579Z" fill="#48001E"/>
<path d="M20.4115 11.8945C21.2861 7.14576 18.3676 2.89972 13.7984 1.48941C5.68499 -1.01586 -0.0651852 6.35333 0.000557995 13.7795C0.0545613 19.7803 1.35182 23.7692 1.35299 23.7715C1.29429 23.5923 2.88504 22.7627 3.06935 22.6684C3.69488 22.355 4.34363 22.0893 5.00995 21.8737C6.37882 21.4234 7.79465 21.1383 9.19756 20.8206C13.5894 19.8269 18.3077 17.95 19.9877 13.4328C20.173 12.933 20.3148 12.4183 20.4115 11.8945Z" fill="#FF5C28"/>
</svg>
