<svg width="120" height="73" viewBox="0 0 120 73" fill="none" xmlns="http://www.w3.org/2000/svg">
<path d="M0.96576 60.3226C1.97073 60.9417 4.06115 61.6165 5.67281 61.6165C7.32368 61.6165 8.00673 61.0779 8.00673 60.1719C8.00673 59.2371 7.4702 58.8058 5.45613 58.1228C1.7912 56.9115 0.392082 54.9345 0.427163 52.8503C0.427163 49.5486 3.22952 47.0723 7.57544 47.0723C9.62252 47.0723 11.4199 47.5758 12.4971 48.1041L11.5644 51.8763C10.3874 51.2559 9.08474 50.9115 7.75497 50.8693C6.42602 50.8693 5.67281 51.4079 5.67281 52.2705C5.67281 53.133 6.3538 53.5643 8.50818 54.3175C11.8491 55.467 13.2152 57.1921 13.2544 59.7427C13.2544 63.0445 10.7038 65.4527 5.67487 65.4527C3.37603 65.4527 1.32689 64.9161 0 64.1959L0.96576 60.3226Z" fill="#48001E"/>
<path d="M21.8719 42.759V47.5053H25.7928V51.5293H21.8719V57.8852C21.8719 60.0045 22.4085 60.9805 24.0243 60.9805C24.5674 60.9988 25.1108 60.9503 25.6421 60.8361L25.6772 64.9633C24.9962 65.215 23.6652 65.4296 22.1567 65.4296C20.3965 65.4296 18.9231 64.8106 18.0295 63.9212C17.008 62.8729 16.5066 61.1848 16.5066 58.7044V44.2304L21.8719 42.759Z" fill="#48001E"/>
<path d="M46.1068 56.0839C46.1068 62.5141 41.5442 65.4588 36.8392 65.4588C31.7029 65.4588 27.7594 62.0828 27.7594 56.4079C27.7594 50.6959 31.4945 47.0681 37.1714 47.0681C42.5079 47.0681 46.1068 50.764 46.1068 56.0839ZM33.3909 56.2635C33.3909 59.2804 34.6497 61.5442 36.9837 61.5442C39.138 61.5442 40.4691 59.4249 40.4691 56.2263C40.4691 53.6427 39.462 50.9827 36.9837 50.9827C34.398 50.9827 33.3909 53.6778 33.3909 56.2635Z" fill="#48001E"/>
<path d="M49.483 53.2816C49.483 50.696 49.4479 49.008 49.3385 47.5036H54.0105L54.2168 50.7372H54.3592C55.2589 48.1495 57.3803 47.0723 59.1055 47.0723C59.4907 47.0669 59.8753 47.1029 60.2528 47.1796V52.318C59.7678 52.2251 59.2753 52.1767 58.7815 52.1735C56.7695 52.1735 55.4055 53.2507 55.0464 54.9387C54.9717 55.3416 54.9357 55.7506 54.9391 56.1604V65.0647H49.483V53.2816Z" fill="#48001E"/>
<path d="M67.8757 47.499L70.4985 56.1558C70.7853 57.1608 71.1423 58.4897 71.359 59.4245H71.5035C71.7201 58.4546 72.0049 57.1546 72.2587 56.1228L74.4482 47.5011H80.2717L76.1754 59.0675C73.6682 66.0693 71.9698 68.8345 69.995 70.5947C68.5358 71.9164 66.7049 72.7565 64.7514 73.0009L63.5566 68.4032C64.391 68.2144 65.1929 67.9028 65.9359 67.4787C66.8667 66.9532 67.648 66.1989 68.2058 65.2872C68.3684 65.0538 68.4673 64.7821 68.4927 64.4989C68.4868 64.1879 68.4165 63.8816 68.2863 63.5992L61.819 47.5032L67.8757 47.499Z" fill="#48001E"/>
<path d="M88.6765 42.759V47.5053H92.5973V51.5293H88.6765V57.8852C88.6765 60.0045 89.2131 60.9805 90.8288 60.9805C91.3713 60.999 91.914 60.9505 92.4446 60.8361L92.4818 64.9633C91.7987 65.215 90.4698 65.4296 88.9613 65.4296C87.201 65.4296 85.7276 64.8106 84.8341 63.9212C83.8291 62.879 83.3256 61.191 83.3256 58.7106V44.2304L88.6765 42.759Z" fill="#48001E"/>
<path d="M99.7768 58.0235C99.9171 60.2935 102.183 61.3645 104.729 61.3645C106.376 61.3907 108.014 61.1353 109.575 60.6092L110.293 64.3092C108.498 65.0645 106.306 65.4236 103.937 65.4236C97.9732 65.4236 94.5601 61.9753 94.5601 56.48C94.5601 52.0247 97.3253 47.103 103.433 47.103C109.108 47.103 111.275 51.5232 111.275 55.8671C111.276 56.5897 111.216 57.311 111.096 58.0235H99.7768ZM106.205 54.2884C106.205 52.9595 105.631 50.7329 103.11 50.7329C100.809 50.7329 99.8759 52.8501 99.7335 54.2884H106.205Z" fill="#48001E"/>
<path d="M114.54 65.0647H120V40.4006L114.54 41.9029V65.0647Z" fill="#48001E"/>
<path d="M77.7953 19.3374C79.3327 10.9159 74.2026 3.38589 66.1711 0.884818C51.9096 -3.55809 41.8022 9.51063 41.9177 22.6805C42.0127 33.3224 44.2929 40.3964 44.295 40.4005C44.1918 40.0827 46.988 38.6114 47.312 38.4442C48.4115 37.8883 49.5518 37.4172 50.7231 37.0348C53.1292 36.2362 55.6179 35.7306 58.0839 35.1673C65.8038 33.4049 74.0974 30.0764 77.0504 22.0655C77.3762 21.1791 77.6254 20.2664 77.7953 19.3374Z" fill="#FF5C28"/>
</svg>
