<svg width="1440" height="927" viewBox="0 0 1440 927" fill="none" xmlns="http://www.w3.org/2000/svg">
<path d="M-343.949 332.94C-254.404 387.976 -68.1429 447.964 75.46 447.964C222.556 447.964 283.418 400.083 283.418 319.548C283.418 236.445 235.611 198.104 56.1536 137.381C-270.4 29.6955 -395.065 -146.051 -391.939 -331.337C-391.939 -624.859 -142.243 -845 244.989 -845C427.388 -845 587.539 -800.238 683.52 -753.274L600.41 -417.926C495.544 -473.079 379.47 -503.694 260.985 -507.45C142.573 -507.45 75.46 -459.569 75.46 -382.886C75.46 -306.204 136.137 -267.862 328.098 -200.903C625.784 -98.7204 747.506 54.645 751 281.391C751 574.913 523.736 789 75.6438 789C-129.188 789 -311.771 741.303 -430 677.278L-343.949 332.94Z" fill="#FFD6CE"/>
<path d="M754.617 1248.63C824.979 1291.87 971.338 1339.01 1084.18 1339.01C1199.76 1339.01 1247.59 1301.39 1247.59 1238.1C1247.59 1172.8 1210.02 1142.67 1069.01 1094.96C812.409 1010.34 714.451 872.235 716.908 726.637C716.908 495.987 913.112 323 1217.39 323C1360.71 323 1486.56 358.174 1561.98 395.078L1496.67 658.596C1414.27 615.256 1323.06 591.199 1229.96 588.247C1136.91 588.247 1084.18 625.872 1084.18 686.13C1084.18 746.387 1131.86 776.516 1282.69 829.133C1516.61 909.428 1612.25 1029.94 1615 1208.12C1615 1438.77 1436.42 1607 1084.32 1607C923.371 1607 779.901 1569.52 687 1519.21L754.617 1248.63Z" fill="#FFD6CE"/>
</svg>
