<svg width="1920" height="1710" viewBox="0 0 1920 1710" fill="none" xmlns="http://www.w3.org/2000/svg" preserveAspectRatio="none"><path d="M61.342 299.877c174.238 46.687 335.461-25.839 376.915-180.548 37.567-140.204-33.778-235.321-166.999-312.471l-69.781-42.879c-64.622-36.316-66.961-66.305-60.484-90.479 9.932-37.065 56.628-43.553 95.347-33.178 53.24 14.265 93.548 50.975 118.132 107.652l176.72-78.737c-38.737-107.106-118.605-176.87-242.83-210.156-172.624-46.254-323.94 15.109-368.506 162.075-38.09 122.792 15.485 239.055 153.546 317.503l55.807 30.498c82.254 47.95 96.432 72.475 87.364 106.318-10.795 40.288-59.104 46.344-104.277 34.24C34.857 88.965-22.221 37.399-43.35-32.171l-186.196 88.29c41.305 123.338 148.917 205.717 290.888 243.758zM1020.59 548.27c82.27 22.046 176.3 19.605 220.63 9.03l-17.78-198.218c-27.65 6.408-75.1 9.241-118.66-2.431-82.28-22.047-112.677-69.919-86.34-168.224l76.87-286.855 243.61 65.275 51.81-193.386-243.61-65.275 64.78-241.732-221.028-59.224L926.1-351.037l-195.21-52.307-51.818 193.386 195.211 52.307-88.522 330.367c-53.113 198.22 54.133 327.138 234.829 375.554zm757.87 211.708c233.93 62.681 473.53-70.026 537-306.923 63.05-235.287-77.66-471.624-311.59-534.306-233.93-62.681-473.96 71.637-537.01 306.923-63.47 236.898 77.67 471.624 311.6 534.306zm55.27-206.279c-116.16-31.124-177.48-144.282-144.23-268.371 33.25-124.089 142.94-191.425 259.09-160.3 114.55 30.692 175.87 143.85 142.62 267.939-33.25 124.089-142.93 191.425-257.48 160.732zm613.84 366.565l221.02 59.223 137.32-512.472c55.99-54.087 140.34-59.122 203.25-42.263 32.27 8.646 55.18 19.965 65.17 27.825l89.59-198.812c-16.02-11.201-49.36-28.769-89.69-39.576-83.89-22.479-172.67 5.55-215.64 56.217l25.91-96.693-221.03-59.223-215.9 805.774zm1056.94-687.507c79.05 21.182 158.81-24.81 179.54-102.164 20.73-77.354-25.35-157.064-104.4-178.246-75.83-20.317-157.2 25.242-177.93 102.596-20.72 77.354 26.97 157.496 102.79 177.814zm-352.38 876.293l221.02 59.22 215.91-805.77-221.03-59.223-215.9 805.773zm885.08 256.16c169.39 45.39 317.46 9.06 422.65-80.21l-131.74-166.57c-52.22 46.46-133.68 73-235.32 45.77-106.48-28.53-185.69-113.67-169.66-225.099l603.37 161.679c13.91-32.55 18.34-55.54 23.53-74.88 70.38-262.685-79.31-446.156-290.65-502.785-245.23-65.708-473.1 68.413-537.01 306.923-68.22 254.622 74.44 470.762 314.83 535.172zm-65.85-573.821c47.31-92.685 150.5-109.945 232.78-87.899 82.28 22.047 151.28 87.173 144.74 189.053l-377.52-101.154zm974.34 817.251c174.24 46.68 335.46-25.84 376.92-180.55 37.57-140.2-33.78-235.32-167-312.47l-69.78-42.88c-64.62-36.32-66.96-66.31-60.49-90.479 9.94-37.066 56.63-43.553 95.35-33.178 53.24 14.265 93.55 50.977 118.13 107.647l176.72-78.732c-38.73-107.106-118.6-176.87-242.83-210.156-172.62-46.254-323.94 15.109-368.5 162.074-38.09 122.794 15.48 239.054 153.54 317.504l55.81 30.5c82.25 47.95 96.43 72.47 87.36 106.32-10.79 40.28-59.1 46.34-104.27 34.24-77.44-20.75-134.52-72.32-155.65-141.89l-186.19 88.29c41.3 123.34 148.91 205.72 290.88 243.76zM-2997.96 604.106c174.24 46.687 335.46-25.84 376.92-180.548 37.56-140.205-33.78-235.321-167-312.472l-69.78-42.879c-64.62-36.315-66.96-66.305-60.49-90.478 9.94-37.066 56.63-43.553 95.35-33.179 53.24 14.266 93.55 50.975 118.13 107.653l176.72-78.738c-38.74-107.105-118.6-176.869-242.83-210.155-172.62-46.255-323.94 15.109-368.5 162.074-38.09 122.793 15.48 239.056 153.54 317.503l55.81 30.499c82.25 47.949 96.43 72.475 87.36 106.317-10.79 40.289-59.1 46.344-104.27 34.24-77.44-20.749-134.52-72.316-155.65-141.886l-186.2 88.29c41.31 123.338 148.92 205.718 290.89 243.759zm959.25 248.392c82.27 22.047 176.3 19.605 220.63 9.03l-17.78-198.217c-27.65 6.408-75.1 9.24-118.66-2.432-82.28-22.046-112.68-69.919-86.34-168.223l76.87-286.856 243.61 65.275 51.81-193.385-243.61-65.276 64.78-241.732-221.03-59.223-64.77 241.732-195.21-52.306-51.82 193.385 195.21 52.307-88.52 330.367c-53.11 198.221 54.13 327.138 234.83 375.554zm757.87 211.712c233.93 62.68 473.527-70.029 537.003-306.927 63.045-235.286-77.667-471.624-311.593-534.305-233.93-62.682-473.96 71.637-537.01 306.923-63.47 236.898 77.67 471.619 311.6 534.309zm55.27-206.282c-116.16-31.125-177.48-144.282-144.23-268.372 33.25-124.089 142.94-191.425 259.09-160.3 114.549 30.692 175.873 143.85 142.623 267.939-33.253 124.09-142.933 191.425-257.483 160.733zm613.836 366.562l221.023 59.23 137.317-512.476c55.992-54.088 140.34-59.123 203.259-42.263 32.266 8.645 55.17 19.964 65.168 27.825l89.583-198.812c-16.019-11.201-49.352-28.769-89.685-39.577-83.892-22.478-172.673 5.551-215.644 56.218l25.909-96.693-221.024-59.223-215.906 805.771zM445.213 536.985c79.052 21.182 158.812-24.809 179.539-102.164 20.727-77.354-25.352-157.063-104.404-178.245-75.826-20.318-157.199 25.241-177.926 102.596-20.727 77.354 26.965 157.496 102.791 177.813zM92.829 1413.28l221.023 59.22 215.907-805.771-221.024-59.223L92.829 1413.28zm885.079 256.16c169.402 45.39 317.462 9.06 422.652-80.21l-131.74-166.57c-52.22 46.46-133.68 73-235.32 45.76-106.481-28.53-185.689-113.66-169.664-225.09L1467.21 1405c13.91-32.54 18.34-55.54 23.53-74.87 70.38-262.69-79.31-446.158-290.65-502.787-245.226-65.707-473.098 68.414-537.006 306.927-68.227 254.62 74.44 470.76 314.824 535.17zm-65.847-573.82c47.314-92.69 150.499-109.948 232.779-87.9 82.28 22.05 151.28 87.17 144.74 189.05l-377.519-101.15zm974.339 817.25c174.24 46.68 335.46-25.84 376.92-180.55 37.57-140.21-33.78-235.32-167-312.47l-69.78-42.88c-64.62-36.32-66.96-66.31-60.49-90.48 9.94-37.07 56.63-43.55 95.35-33.18 53.24 14.27 93.55 50.98 118.13 107.65l176.72-78.73c-38.73-107.11-118.6-176.87-242.83-210.16-172.62-46.25-323.94 15.11-368.5 162.07-38.09 122.8 15.48 239.06 153.54 317.51l55.81 30.5c82.25 47.95 96.43 72.47 87.36 106.31-10.79 40.29-59.1 46.35-104.27 34.24-77.44-20.75-134.52-72.31-155.65-141.88l-186.19 88.29c41.3 123.34 148.91 205.72 290.88 243.76z" fill="#FFD6CE"/></svg>