<svg width="120" height="73" viewBox="0 0 120 73" fill="none" xmlns="http://www.w3.org/2000/svg" preserveAspectRatio="none"><path d="M.966 60.323c1.005.619 3.095 1.294 4.707 1.294 1.65 0 2.334-.54 2.334-1.445 0-.935-.537-1.366-2.55-2.05C1.79 56.913.391 54.935.426 52.85c0-3.301 2.803-5.778 7.148-5.778 2.048 0 3.845.504 4.922 1.032l-.933 3.772a8.766 8.766 0 00-3.809-1.007c-1.329 0-2.082.539-2.082 1.401 0 .863.68 1.294 2.835 2.047 3.341 1.15 4.707 2.875 4.746 5.426 0 3.301-2.55 5.71-7.58 5.71-2.298 0-4.347-.537-5.674-1.257l.966-3.873zm20.906-17.564v4.746h3.92v4.024h-3.92v6.356c0 2.12.537 3.096 2.152 3.096a6.636 6.636 0 001.618-.145l.035 4.127c-.68.252-2.012.467-3.52.467-1.76 0-3.234-.62-4.128-1.509-1.021-1.048-1.522-2.736-1.522-5.217V44.23l5.365-1.471zm24.235 13.325c0 6.43-4.563 9.375-9.268 9.375-5.136 0-9.08-3.376-9.08-9.051 0-5.712 3.735-9.34 9.412-9.34 5.337 0 8.936 3.696 8.936 9.016zm-12.716.18c0 3.016 1.259 5.28 3.593 5.28 2.154 0 3.485-2.12 3.485-5.318 0-2.583-1.007-5.243-3.485-5.243-2.586 0-3.593 2.695-3.593 5.28zm16.092-2.982c0-2.586-.035-4.274-.144-5.778h4.672l.206 3.233h.142c.9-2.587 3.021-3.665 4.746-3.665.386-.005.77.03 1.148.108v5.138a8.1 8.1 0 00-1.471-.145c-2.012 0-3.376 1.078-3.736 2.766a6.41 6.41 0 00-.107 1.221v8.905h-5.456V53.282zm18.393-5.783l2.623 8.657c.286 1.005.643 2.334.86 3.269h.145c.216-.97.5-2.27.755-3.302l2.19-8.622h5.823l-4.097 11.567c-2.507 7.001-4.205 9.767-6.18 11.527A9.583 9.583 0 0164.751 73l-1.194-4.598a8.651 8.651 0 002.379-.924 6.281 6.281 0 002.27-2.192c.162-.233.261-.505.287-.788a2.25 2.25 0 00-.207-.9L61.82 47.503l6.057-.004zm20.801-4.74v4.746h3.92v4.024h-3.92v6.356c0 2.12.536 3.096 2.152 3.096a6.6 6.6 0 001.616-.145l.037 4.127c-.683.252-2.012.467-3.52.467-1.761 0-3.234-.62-4.128-1.509-1.005-1.042-1.508-2.73-1.508-5.21V44.23l5.35-1.472zm11.1 15.264c.14 2.27 2.406 3.341 4.952 3.341a14.45 14.45 0 004.846-.755l.718 3.7c-1.795.755-3.987 1.115-6.356 1.115-5.964 0-9.377-3.449-9.377-8.944 0-4.455 2.765-9.377 8.873-9.377 5.675 0 7.842 4.42 7.842 8.764.001.723-.059 1.444-.179 2.157h-11.32zm6.428-3.735c0-1.328-.574-3.555-3.095-3.555-2.301 0-3.234 2.117-3.376 3.555h6.471zm8.335 10.777H120V40.4l-5.46 1.502v23.162z" fill="#48001E"/><path d="M77.795 19.337C79.333 10.916 74.203 3.386 66.171.885 51.91-3.558 41.802 9.51 41.918 22.68c.095 10.642 2.375 17.716 2.377 17.72-.103-.317 2.693-1.789 3.017-1.956 1.1-.556 2.24-1.027 3.411-1.41 2.406-.798 4.895-1.303 7.36-1.867 7.72-1.762 16.014-5.09 18.967-13.102.326-.886.575-1.799.745-2.728z" fill="#FF5C28"/></svg>