<svg width="1440" height="927" viewBox="0 0 1440 927" fill="none" xmlns="http://www.w3.org/2000/svg" preserveAspectRatio="none"><path d="M-343.949 332.94c89.545 55.036 275.806 115.024 419.409 115.024 147.096 0 207.958-47.881 207.958-128.416 0-83.103-47.807-121.444-227.264-182.167C-270.4 29.695-395.065-146.051-391.94-331.337-391.939-624.859-142.243-845 244.989-845c182.399 0 342.55 44.762 438.531 91.726l-83.11 335.348a782.474 782.474 0 00-339.425-89.524c-118.412 0-185.525 47.881-185.525 124.564 0 76.682 60.677 115.024 252.638 181.983C625.784-98.72 747.506 54.645 751 281.391 751 574.913 523.736 789 75.644 789-129.188 789-311.771 741.303-430 677.278l86.051-344.338zm1098.566 915.69c70.362 43.24 216.721 90.38 329.563 90.38 115.58 0 163.41-37.62 163.41-100.91 0-65.3-37.57-95.43-178.58-143.14-256.601-84.62-354.559-222.725-352.102-368.323C716.908 495.987 913.112 323 1217.39 323c143.32 0 269.17 35.174 344.59 72.078l-65.31 263.518a614.83 614.83 0 00-266.71-70.349c-93.05 0-145.78 37.625-145.78 97.883 0 60.257 47.68 90.386 198.51 143.003 233.92 80.295 329.56 200.807 332.31 378.987 0 230.65-178.58 398.88-530.68 398.88-160.949 0-304.419-37.48-397.32-87.79l67.617-270.58z" fill="#FFD6CE"/></svg>